<svg width="117" height="25" viewBox="0 0 117 25" fill="none" xmlns="http://www.w3.org/2000/svg">
<path d="M19.2767 19.0158C19.2767 20.6295 17.9465 21.9378 16.3058 21.9378C14.6652 21.9378 13.335 20.6295 13.335 19.0158C13.335 17.4019 14.6652 16.0939 16.3058 16.0939C17.9465 16.0939 19.2767 17.4019 19.2767 19.0158Z" fill="url(#paint0_linear_262_8312)"/>
<path d="M16.3062 2.97882C11.9833 2.98481 7.83949 4.6763 4.78251 7.68253C1.72591 10.6888 0.00614204 14.7647 0 19.0163V19.4639L4.62252 19.4636V19.0159C4.62252 14.9105 6.84926 11.1173 10.4641 9.06426C14.0793 7.01171 18.5328 7.01171 22.1476 9.06426C25.7624 11.1169 27.9892 14.9104 27.9892 19.0163V19.4639L32.6117 19.4636V19.0159C32.6056 14.7644 30.8858 10.6888 27.8292 7.68253C24.7724 4.6763 20.6291 2.98486 16.3062 2.97882ZM28.445 19.0158C28.445 14.7505 26.1315 10.8093 22.3757 8.6764C18.62 6.54407 13.9928 6.54407 10.2368 8.6764C6.48112 10.8091 4.16752 14.7503 4.16752 19.0158H0.455194C0.455194 13.445 3.47668 8.29765 8.38184 5.5131C13.287 2.72855 19.3303 2.72788 24.2351 5.5131C29.14 8.29832 32.1618 13.4455 32.1618 19.0158H28.445Z" fill="url(#paint1_linear_262_8312)"/>
<path d="M16.0829 13.3C17.5936 13.3 19.0422 13.8898 20.1104 14.9405C21.1787 15.9911 21.7788 17.4163 21.7788 18.9021H25.4962C25.4962 15.5944 23.7017 12.538 20.7895 10.8844C17.8769 9.23034 14.2886 9.23034 11.3761 10.8844C8.46388 12.538 6.66943 15.5944 6.66943 18.9021H10.3867C10.3867 17.4163 10.9869 15.9911 12.0551 14.9405C13.1233 13.8898 14.5721 13.3 16.0829 13.3Z" fill="url(#paint2_linear_262_8312)"/>
<path d="M36.6089 15.3333V4.38531H43.5445C46.3371 4.38531 47.2425 5.65798 47.2425 7.35998C47.2425 8.78598 46.4599 9.67531 45.4318 9.99731V10.028C46.7361 10.304 47.0276 11.4386 47.0276 12.9873C47.0276 13.5086 47.043 14.7353 47.488 15.3333H45.0022C44.8334 15.0266 44.726 14.4746 44.726 13.6773C44.726 12.1133 44.5112 11.0093 42.8233 11.0093H38.9105V15.3333H36.6089ZM38.9105 9.29198H42.8847C44.1583 9.29198 44.8488 8.90865 44.8488 7.68198C44.8488 6.54731 44.0969 6.10265 42.8847 6.10265H38.9105V9.29198ZM58.0207 11.8066H50.3485C50.3946 12.7113 51.0083 14.1066 53.1105 14.1066C54.5068 14.1066 55.1206 13.616 55.5349 12.9413H57.8365C57.3762 13.846 56.2714 15.64 53.1719 15.64C49.5046 15.64 48.1389 13.5086 48.1389 11.3466C48.1389 8.63265 50.149 6.89998 53.0338 6.89998C56.6397 6.89998 58.0207 9.12331 58.0207 11.5V11.8066ZM50.3485 10.4573H55.8111C55.5502 8.83198 54.1079 8.34132 53.0645 8.34132C52.0824 8.34132 50.7014 8.80131 50.3485 10.4573ZM59.0131 15.3333V7.20665H61.1306V8.43332H61.1613C61.8518 7.55931 62.9259 6.99198 64.3683 6.99198C66.1175 6.99198 67.8207 7.62065 67.8207 9.81331V15.3333H65.7032V10.488C65.7032 9.61398 65.4117 8.61731 63.6625 8.61731C62.5577 8.61731 61.1306 9.23065 61.1306 10.9633V15.3333H59.0131ZM78.6929 11.8066H71.0208C71.0668 12.7113 71.6806 14.1066 73.7828 14.1066C75.1791 14.1066 75.7929 13.616 76.2071 12.9413H78.5088C78.0485 13.846 76.9437 15.64 73.8441 15.64C70.1769 15.64 68.8112 13.5086 68.8112 11.3466C68.8112 8.63265 70.8213 6.89998 73.706 6.89998C77.3119 6.89998 78.6929 9.12331 78.6929 11.5V11.8066ZM71.0208 10.4573H76.4833C76.2225 8.83198 74.7801 8.34132 73.7367 8.34132C72.7547 8.34132 71.3737 8.80131 71.0208 10.4573ZM86.0071 15.3333V10.488C86.0071 9.64465 85.8997 8.61731 84.0124 8.61731C83.2759 8.61731 81.8028 9.03131 81.8028 10.81V15.3333H79.6853V7.20665H81.8028V8.43332H81.8335C82.524 7.55931 83.5981 6.99198 85.0405 6.99198C85.9918 6.99198 87.3421 7.16065 87.9098 8.49465C88.4315 7.74332 89.5056 6.99198 91.2089 6.99198C92.5131 6.99198 94.4465 7.45198 94.4465 9.93598V15.3333H92.329V10.488C92.329 9.64465 92.2216 8.61731 90.3342 8.61731C89.5977 8.61731 88.1247 9.03131 88.1247 10.81V15.3333H86.0071ZM97.5645 11.27C97.5645 12.6806 98.3318 14.0146 100.388 14.0146C102.444 14.0146 103.211 12.6806 103.211 11.27C103.211 9.85932 102.444 8.52531 100.388 8.52531C98.3318 8.52531 97.5645 9.85932 97.5645 11.27ZM95.3552 11.27C95.3552 9.03132 96.7513 6.89998 100.388 6.89998C104.024 6.89998 105.421 9.03132 105.421 11.27C105.421 13.5086 104.024 15.64 100.388 15.64C96.7513 15.64 95.3552 13.5086 95.3552 11.27ZM106.321 15.3333V7.20665H108.439V8.43332H108.47C109.16 7.55931 110.234 6.99198 111.676 6.99198C113.426 6.99198 115.129 7.62065 115.129 9.81331V15.3333H113.011V10.488C113.011 9.61398 112.72 8.61731 110.971 8.61731C109.866 8.61731 108.439 9.23065 108.439 10.9633V15.3333H106.321Z" fill="#3B82F6"/>
<path d="M88.2348 19.5981H87.6494C87.4371 18.8245 86.9455 18.4313 86.1743 18.4189C85.5906 18.4313 85.1675 18.6513 84.9053 19.0787C84.6306 19.503 84.4964 19.9865 84.5026 20.5293C84.5026 21.0659 84.6337 21.5416 84.8959 21.9565C85.1582 22.3839 85.5843 22.6038 86.1743 22.6163C87.0422 22.6038 87.5495 22.1593 87.6962 21.2827H88.3097C88.216 21.8411 87.9928 22.2857 87.6401 22.6163C87.2872 22.9563 86.7987 23.1295 86.1743 23.1357C85.3939 23.1233 84.8179 22.8705 84.4464 22.3777C84.0749 21.891 83.8892 21.2749 83.8892 20.5293C83.8892 19.8118 84.0874 19.1972 84.4838 18.6856C84.8678 18.1771 85.4314 17.9166 86.1743 17.9042C87.3419 17.8949 88.0287 18.4594 88.2348 19.5981ZM92.8646 20.3936C92.6211 20.4841 92.3744 20.548 92.1247 20.5855C91.875 20.6291 91.6253 20.6572 91.3755 20.6697C90.4546 20.7227 89.9878 21.0752 89.9754 21.7273C89.9816 22.0205 90.094 22.2404 90.3126 22.3871C90.5248 22.5399 90.7714 22.6163 91.0524 22.6163C91.53 22.6163 91.9483 22.4978 92.3074 22.2607C92.6664 22.033 92.8521 21.6696 92.8646 21.1704V20.3936ZM91.0992 20.2111L91.8953 20.1081C92.0108 20.0925 92.1419 20.0723 92.2886 20.0473C92.4291 20.0161 92.5509 19.9818 92.6539 19.9444C92.7475 19.8914 92.8084 19.8149 92.8365 19.7151C92.8552 19.6121 92.8646 19.5154 92.8646 19.425C92.8646 19.1255 92.7709 18.8838 92.5836 18.6997C92.3932 18.5187 92.0732 18.4251 91.6237 18.4189C91.2303 18.4127 90.9057 18.4891 90.6497 18.6482C90.3999 18.8167 90.2423 19.1145 90.1768 19.542H89.5914C89.6507 18.9586 89.8692 18.5359 90.247 18.2739C90.6216 18.0274 91.0851 17.9042 91.6377 17.9042C92.1528 17.9042 92.5805 18.015 92.9208 18.2364C93.258 18.4735 93.4312 18.8759 93.4406 19.4437V22.1483C93.4312 22.3636 93.4717 22.5009 93.5623 22.5601C93.6466 22.6225 93.8074 22.6132 94.0447 22.5321V22.9813C94.0041 22.9938 93.9432 23.0094 93.862 23.0281C93.7714 23.0592 93.6809 23.0749 93.5904 23.0749C93.503 23.0749 93.4172 23.0656 93.3329 23.0468C93.1487 23.0094 93.027 22.9205 92.9676 22.7801C92.9114 22.6397 92.8802 22.4838 92.874 22.3121C92.3744 22.8549 91.7564 23.1295 91.0196 23.1357C90.5732 23.1357 90.1908 23.014 89.8724 22.7707C89.5383 22.5399 89.3682 22.1858 89.362 21.7085C89.362 20.8693 89.941 20.3703 91.0992 20.2111ZM95.6682 20.3281V23H95.0923V18.0352H95.6682V18.7278C95.893 18.472 96.1338 18.2707 96.3889 18.1241C96.6392 17.9775 96.9327 17.9042 97.2693 17.9042C97.9032 17.8886 98.4095 18.1241 98.7864 18.6108C98.9082 18.7824 98.9821 18.9617 99.007 19.1489C99.0262 19.3392 99.0348 19.5404 99.0348 19.7525V23H98.4594V19.7619C98.4719 18.8665 98.0442 18.4189 97.1762 18.4189C96.8166 18.4251 96.5222 18.5218 96.2911 18.7091C96.0628 18.8931 95.8977 19.1192 95.7947 19.3876C95.7041 19.6871 95.662 20.0005 95.6682 20.3281ZM103.829 20.3936C103.585 20.4841 103.339 20.548 103.089 20.5855C102.839 20.6291 102.59 20.6572 102.34 20.6697C101.419 20.7227 100.952 21.0752 100.939 21.7273C100.946 22.0205 101.058 22.2404 101.277 22.3871C101.489 22.5399 101.735 22.6163 102.016 22.6163C102.494 22.6163 102.913 22.4978 103.272 22.2607C103.63 22.033 103.816 21.6696 103.829 21.1704V20.3936ZM102.063 20.2111L102.859 20.1081C102.975 20.0925 103.106 20.0723 103.253 20.0473C103.394 20.0161 103.515 19.9818 103.618 19.9444C103.712 19.8914 103.772 19.8149 103.801 19.7151C103.819 19.6121 103.829 19.5154 103.829 19.425C103.829 19.1255 103.735 18.8838 103.548 18.6997C103.357 18.5187 103.038 18.4251 102.588 18.4189C102.195 18.4127 101.87 18.4891 101.614 18.6482C101.364 18.8167 101.207 19.1145 101.141 19.542H100.556C100.615 18.9586 100.834 18.5359 101.211 18.2739C101.586 18.0274 102.049 17.9042 102.602 17.9042C103.117 17.9042 103.545 18.015 103.886 18.2364C104.222 18.4735 104.396 18.8759 104.405 19.4437V22.1483C104.396 22.3636 104.436 22.5009 104.526 22.5601C104.611 22.6225 104.772 22.6132 105.009 22.5321V22.9813C104.968 22.9938 104.908 23.0094 104.826 23.0281C104.736 23.0592 104.645 23.0749 104.555 23.0749C104.468 23.0749 104.381 23.0656 104.297 23.0468C104.113 23.0094 103.991 22.9205 103.932 22.7801C103.876 22.6397 103.844 22.4838 103.839 22.3121C103.339 22.8549 102.72 23.1295 101.984 23.1357C101.538 23.1357 101.155 23.014 100.837 22.7707C100.502 22.5399 100.332 22.1858 100.327 21.7085C100.327 20.8693 100.905 20.3703 102.063 20.2111ZM106.661 20.5667V23H106.089V18.0352H106.661V18.9664H106.684C106.843 18.5702 107.051 18.2926 107.306 18.1335C107.562 17.9806 107.895 17.9042 108.305 17.9042V18.5265C107.671 18.5265 107.235 18.7215 106.998 19.1115C106.766 19.5077 106.654 19.9928 106.661 20.5667ZM110.059 23H109.483V18.0352H110.059V23ZM110.087 16.9543H109.455V16.1026H110.087V16.9543ZM111.425 21.4465H112.01C112.163 22.245 112.66 22.635 113.5 22.6163C113.921 22.6101 114.229 22.5149 114.427 22.3309C114.627 22.1562 114.726 21.944 114.726 21.6945C114.726 21.5166 114.684 21.3701 114.6 21.2546C114.51 21.1392 114.388 21.0503 114.234 20.9879C114.172 20.9504 114.095 20.9176 114.005 20.8897C113.915 20.8584 113.823 20.8335 113.729 20.8147C113.535 20.7773 113.337 20.7399 113.134 20.7024C113.037 20.6681 112.943 20.6385 112.853 20.6136C112.759 20.5948 112.664 20.5699 112.567 20.5386C112.374 20.4794 112.201 20.4029 112.048 20.3094C111.895 20.2065 111.773 20.0754 111.682 19.9163C111.589 19.7541 111.542 19.556 111.542 19.322C111.542 18.8978 111.698 18.5562 112.01 18.2973C112.31 18.0414 112.734 17.9104 113.284 17.9042C114.392 17.8823 115.032 18.4017 115.204 19.4624H114.619C114.569 19.0787 114.425 18.8073 114.187 18.6482C113.945 18.4954 113.64 18.4189 113.274 18.4189C112.535 18.4377 112.162 18.7215 112.155 19.2706C112.155 19.4328 112.204 19.5669 112.301 19.673C112.388 19.7759 112.508 19.8633 112.661 19.9351C112.976 20.0691 113.339 20.1768 113.747 20.2579C113.95 20.3047 114.149 20.3593 114.343 20.4217C114.533 20.4872 114.701 20.5729 114.848 20.679C115.001 20.782 115.122 20.9161 115.213 21.0814C115.298 21.2437 115.34 21.4449 115.34 21.6851C115.333 22.1593 115.144 22.5181 114.773 22.7614C114.395 23.0109 113.91 23.1357 113.316 23.1357C112.727 23.1295 112.272 22.9625 111.954 22.635C111.632 22.323 111.456 21.9269 111.425 21.4465Z" fill="white"/>
<defs>
<linearGradient id="paint0_linear_262_8312" x1="16.3058" y1="16.0939" x2="16.3058" y2="21.9378" gradientUnits="userSpaceOnUse">
<stop stop-color="#2176FF"/>
<stop offset="1" stop-color="#4B86E8"/>
</linearGradient>
<linearGradient id="paint1_linear_262_8312" x1="16.3059" y1="2.97882" x2="16.3059" y2="19.4639" gradientUnits="userSpaceOnUse">
<stop stop-color="#2176FF"/>
<stop offset="1" stop-color="#4B86E8"/>
</linearGradient>
<linearGradient id="paint2_linear_262_8312" x1="16.0828" y1="9.64385" x2="16.0828" y2="18.9021" gradientUnits="userSpaceOnUse">
<stop stop-color="#2176FF"/>
<stop offset="1" stop-color="#4B86E8"/>
</linearGradient>
</defs>
</svg>
